<svg width="64" height="64" viewBox="0 0 64 64" fill="none" aria-label="CureBot logo" role="img" xmlns="http://www.w3.org/2000/svg">
  <defs>
    <linearGradient id="cb_g" x1="0" y1="0" x2="1" y2="1">
      <stop offset="0%" stop-color="#34d399"/>
      <stop offset="100%" stop-color="#38bdf8"/>
    </linearGradient>
  </defs>
  <path d="M32 6c8 0 18 3 18 12v12c0 6-4 12-8 16l-8 8-8-8c-4-4-8-10-8-16V18C18 9 24 6 32 6z" fill="url(#cb_g)"/>
  <circle cx="32" cy="26" r="11" fill="#fff"/>
  <path d="M32 18c-3 0-5 1.7-6 4-1-2.3-3-4-6-4-4 0-7 3.2-7 7.2 0 6.1 7.7 10.8 13 15.8 5.3-5 13-9.7 13-15.8 0-4-3-7.2-7-7.2z" fill="#f472b6" opacity="0.0"/>
  <rect x="29" y="21" width="6" height="10" rx="2" fill="#0ea5e9"/>
  <rect x="26" y="24" width="12" height="4" rx="2" fill="#0ea5e9"/>
</svg>
